<?xml version="1.0" encoding="UTF-8" standalone="no"?>
<!-- Created with Inkscape (http://www.inkscape.org/) -->

<svg
   xmlns:dc="http://purl.org/dc/elements/1.1/"
   xmlns:cc="http://creativecommons.org/ns#"
   xmlns:rdf="http://www.w3.org/1999/02/22-rdf-syntax-ns#"
   xmlns:svg="http://www.w3.org/2000/svg"
   xmlns="http://www.w3.org/2000/svg"
   xmlns:xlink="http://www.w3.org/1999/xlink"
   xmlns:sodipodi="http://sodipodi.sourceforge.net/DTD/sodipodi-0.dtd"
   xmlns:inkscape="http://www.inkscape.org/namespaces/inkscape"
   width="240mm"
   height="110mm"
   viewBox="0 0 240 110"
   version="1.1"
   id="svg8"
   inkscape:version="0.92.1 r"
   sodipodi:docname="pipe.svg">
  <defs
     id="defs2">
    <inkscape:path-effect
       is_visible="true"
       id="path-effect4534"
       effect="spiro" />
    <linearGradient
       inkscape:collect="always"
       id="linearGradient4553">
      <stop
         style="stop-color:#a05a2c;stop-opacity:1"
         offset="0"
         id="stop4549" />
      <stop
         id="stop4557"
         offset="0.42702731"
         style="stop-color:#d38d5f;stop-opacity:1" />
      <stop
         style="stop-color:#e9c6af;stop-opacity:1"
         offset="1"
         id="stop4551" />
    </linearGradient>
    <linearGradient
       inkscape:collect="always"
       id="linearGradient4543">
      <stop
         style="stop-color:#000000;stop-opacity:1"
         offset="0"
         id="stop4539" />
      <stop
         id="stop4547"
         offset="0.50605237"
         style="stop-color:#a05a2c;stop-opacity:1" />
      <stop
         style="stop-color:#784421;stop-opacity:0;"
         offset="1"
         id="stop4541" />
    </linearGradient>
    <inkscape:path-effect
       is_visible="true"
       id="path-effect4537"
       effect="spiro" />
    <inkscape:path-effect
       is_visible="true"
       id="path-effect4526"
       effect="spiro" />
    <inkscape:path-effect
       effect="spiro"
       id="path-effect4508"
       is_visible="true" />
    <inkscape:path-effect
       is_visible="true"
       id="path-effect4504"
       effect="spiro" />
    <inkscape:path-effect
       effect="spiro"
       id="path-effect3771"
       is_visible="true" />
    <inkscape:path-effect
       effect="spiro"
       id="path-effect3765"
       is_visible="true" />
    <linearGradient
       inkscape:collect="always"
       xlink:href="#linearGradient4543"
       id="linearGradient4545"
       x1="143.94406"
       y1="192.14134"
       x2="137.0108"
       y2="50.414085"
       gradientUnits="userSpaceOnUse"
       gradientTransform="translate(-6.0896599e-7,100)" />
    <linearGradient
       inkscape:collect="always"
       xlink:href="#linearGradient4553"
       id="linearGradient4555"
       x1="116.79464"
       y1="192.3006"
       x2="140.22917"
       y2="114.4375"
       gradientUnits="userSpaceOnUse"
       gradientTransform="translate(-6.0896599e-7,100)" />
  </defs>
  <sodipodi:namedview
     id="base"
     pagecolor="#ffffff"
     bordercolor="#666666"
     borderopacity="1.0"
     inkscape:pageopacity="0.0"
     inkscape:pageshadow="2"
     inkscape:zoom="0.7"
     inkscape:cx="446.20629"
     inkscape:cy="162.08698"
     inkscape:document-units="mm"
     inkscape:current-layer="layer1"
     showgrid="false"
     inkscape:window-width="1360"
     inkscape:window-height="768"
     inkscape:window-x="0"
     inkscape:window-y="0"
     inkscape:window-maximized="0"
     inkscape:measure-start="0,0"
     inkscape:measure-end="0,0" />
  <metadata
     id="metadata5">
    <rdf:RDF>
      <cc:Work
         rdf:about="">
        <dc:format>image/svg+xml</dc:format>
        <dc:type
           rdf:resource="http://purl.org/dc/dcmitype/StillImage" />
        <dc:title />
      </cc:Work>
    </rdf:RDF>
  </metadata>
  <g
     inkscape:label="Layer 1"
     inkscape:groupmode="layer"
     id="layer1"
     transform="translate(0,-187)"
     style="display:inline;opacity:1">
    <path
       style="fill:url(#linearGradient4545);fill-opacity:1;stroke:none;stroke-width:0.13229166;stroke-linecap:square;stroke-linejoin:miter;stroke-miterlimit:4;stroke-dasharray:none;stroke-dashoffset:0;stroke-opacity:1"
       d="m 12.928981,198.49497 c -0.428723,1.07442 -0.790615,2.1755 -1.08289,3.29476 -0.493621,1.89032 -0.787521,3.82675 -1.039434,5.76414 -0.387644,2.98126 -0.677969,5.97553 -0.8504474,8.97693 -0.2277882,3.96388 -0.249893,7.93887 -0.09449,11.90625 0.1112137,2.83924 0.3132524,5.6744 0.5669634,8.50447 0.245996,2.74401 0.54057,5.48345 0.850447,8.22098 0.214479,1.89476 0.436445,3.78974 0.755952,5.66964 0.322953,1.90018 0.745029,3.78186 1.13393,5.66965 0.417964,2.02886 0.799019,4.0706 1.41741,6.04761 0.838984,2.68225 2.104855,5.21223 3.496281,7.65402 1.004267,1.76237 2.078711,3.48865 3.307291,5.10268 1.906627,2.5048 4.172784,4.72241 6.614584,6.70908 1.656245,1.34754 3.402293,2.59615 5.291666,3.59077 2.094616,1.10267 4.343988,1.88225 6.614584,2.55134 2.610074,0.76913 5.261307,1.3979 7.937499,1.88988 3.588161,0.65964 7.221822,1.07332 10.866814,1.22842 5.848478,0.24886 11.724145,-0.16975 17.481387,-1.22842 3.157234,-0.58057 6.277954,-1.35273 9.35492,-2.26786 3.872951,-1.15187 7.682861,-2.53259 11.33928,-4.25223 4.305792,-2.02504 8.378802,-4.50998 12.378722,-7.08705 3.42417,-2.20613 6.80547,-4.48616 10.01637,-6.99256 5.97768,-4.66613 11.32193,-10.08225 16.63095,-15.49702 3.5107,-3.58063 7.01682,-7.17085 10.29985,-10.96131 1.91494,-2.21091 3.75395,-4.48991 5.76414,-6.61459 2.95711,-3.12554 6.26388,-5.89554 9.4494,-8.78794 1.60168,-1.45429 3.17452,-2.94125 4.8192,-4.34673 1.59118,-1.35976 3.2504,-2.64355 5.00819,-3.77976 1.78911,-1.15646 3.67437,-2.15635 5.57514,-3.11831 2.11247,-1.0691 4.24834,-2.09372 6.4256,-3.0238 2.08202,-0.8894 4.2003,-1.69167 6.3311,-2.45685 2.57955,-0.92633 5.1821,-1.79979 7.84301,-2.45685 2.61563,-0.64588 5.27809,-1.08037 7.9375,-1.5119 2.62415,-0.42581 5.24968,-0.84955 7.89025,-1.15756 1.09743,-0.12801 2.20386,-0.16263 3.30729,-0.1063 0.88404,0.0451 1.76872,0.0778 2.65369,0.0979 0.83455,0.019 1.66934,0.0268 2.5041,0.0236 0.16333,-6.4e-4 0.32809,0.002 0.48734,0.038 0.15924,0.0363 0.31064,0.10581 0.44266,0.20197 0.13203,0.0962 0.24405,0.21703 0.34837,0.34271 0.10432,0.12568 0.20282,0.25694 0.32016,0.37056 0.19731,0.19106 0.44423,0.3263 0.70433,0.41452 0.26011,0.0882 0.53377,0.13091 0.80758,0.15245 0.77262,0.0608 1.56626,-0.0487 2.26786,-0.37798 0.6543,-0.30704 1.20913,-0.79325 1.7009,-1.32292 0.49584,-0.53405 0.94124,-1.1256 1.22841,-1.79538 0.41736,-0.97344 0.48,-2.07756 0.28347,-3.11831 -0.2319,-1.22802 -0.80898,-2.36846 -1.51188,-3.40178 -0.64603,-0.94972 -1.43097,-1.84578 -2.45687,-2.36235 -0.75407,-0.37969 -1.615,-0.53652 -2.45683,-0.47247 -0.74958,0.057 -1.47695,0.28387 -2.17336,0.56696 -0.65312,0.26549 -1.28561,0.58174 -1.88988,0.94494 h -3.49628 c -3.65395,0 -7.30753,-0.0599 -10.96131,-0.0945 -2.96212,-0.0281 -5.9271,-0.0132 -8.88244,0.18899 -4.535,0.31034 -9.02686,1.06039 -13.51265,1.79538 -4.24444,0.69544 -8.49821,1.3798 -12.66221,2.45685 -4.52737,1.17104 -8.92549,2.80077 -13.22916,4.63021 -5.24018,2.22754 -10.35256,4.75511 -15.30804,7.55952 -5.43941,3.07828 -10.68728,6.48843 -15.7805,10.11086 -4.43586,3.1549 -8.7549,6.4708 -13.04018,9.82738 -3.65115,2.85987 -7.28406,5.75385 -11.1503,8.31548 -2.414527,1.59978 -4.915508,3.06676 -7.465036,4.44122 -2.083294,1.12311 -4.199311,2.1847 -6.331096,3.2128 -2.145015,1.03448 -4.348494,2.04791 -6.70908,2.36235 -1.444663,0.19244 -2.921571,0.11602 -4.34672,-0.18899 -0.399167,-0.0854 -0.79641,-0.18928 -1.170801,-0.35196 -0.374391,-0.16268 -0.726789,-0.38652 -1.002569,-0.68748 -0.489186,-0.53386 -0.702519,-1.27298 -0.741662,-1.99601 -0.03914,-0.72303 0.07964,-1.4439 0.174702,-2.16172 0.459661,-3.47102 0.36941,-6.98753 0.37797,-10.48884 0.0079,-3.24451 0.101432,-6.48996 0,-9.73289 -0.07894,-2.52377 -0.275829,-5.04219 -0.47246,-7.55952 -0.196986,-2.52188 -0.393809,-5.04417 -0.66146,-7.55953 -0.308217,-2.8966 -0.71052,-5.78445 -1.26659,-8.64383 -0.147261,-0.75723 -0.306204,-1.51564 -0.572338,-2.2397 -0.266134,-0.72405 -0.644641,-1.417 -1.184882,-1.96766 -0.681496,-0.69464 -1.582118,-1.12823 -2.48551,-1.48995 -2.053806,-0.82234 -4.217496,-1.34275 -6.39692,-1.72285 -2.499291,-0.43589 -5.027563,-0.69045 -7.559529,-0.85044 -4.182582,-0.2643 -8.377592,-0.27126 -12.567708,-0.18898 -3.927088,0.0771 -7.855231,0.23273 -11.764507,0.61421 -3.060708,0.29868 -6.109527,0.73601 -9.118677,1.37017 -1.593031,0.33572 -3.175857,0.72689 -4.724703,1.22842 -0.48858,0.15821 -0.976642,0.32868 -1.424452,0.58009 -0.44781,0.25141 -0.856939,0.58943 -1.126887,1.02631 -0.07276,0.11776 -0.135032,0.242 -0.185827,0.37077"
       id="path3763"
       inkscape:connector-curvature="0"
       inkscape:path-effect="#path-effect3765"
       inkscape:original-d="m 12.928981,198.49497 c -0.374482,0.91121 -0.578363,2.26782 -1.08289,3.29476 -0.535731,1.1027 -0.692692,3.84249 -1.039434,5.76414 -0.346744,1.92164 -0.5667,5.98436 -0.8504474,8.97693 -0.283747,2.99258 -0.06273,7.93724 -0.09449,11.90625 -0.03176,3.96902 0.3782414,5.66938 0.5669634,8.50447 0.188724,2.83508 0.567229,5.48039 0.850447,8.22098 0.283218,2.74059 0.504233,3.7795 0.755952,5.66964 0.251719,1.89015 0.756219,3.7795 1.13393,5.66965 0.377711,1.89014 0.945205,4.03148 1.41741,6.04761 0.472205,2.01614 2.331117,5.10242 3.496281,7.65402 1.165161,2.55161 2.205125,3.40152 3.307291,5.10268 1.102165,1.70116 4.409985,4.47245 6.614584,6.70908 2.204595,2.23662 3.528041,2.39358 5.291666,3.59077 1.763623,1.19719 4.409985,1.70063 6.614584,2.55134 2.204595,0.85071 5.291931,1.25966 7.937499,1.88988 2.645569,0.63023 7.244808,0.81869 10.866814,1.22842 3.621997,0.40974 11.654527,-0.81921 17.481387,-1.22842 5.82687,-0.40921 6.23688,-1.51217 9.35492,-2.26786 3.11803,-0.75568 7.559776,-2.83508 11.33928,-4.25223 3.779502,-1.41714 8.252752,-4.72497 12.378722,-7.08705 4.12598,-2.36209 6.67784,-4.66197 10.01637,-6.99256 3.33852,-2.33059 11.08757,-10.33161 16.63095,-15.49702 5.54339,-5.16541 6.86683,-7.30781 10.29985,-10.96131 3.43302,-3.65351 3.84303,-4.40999 5.76414,-6.61459 1.92111,-2.2046 6.29987,-5.85889 9.4494,-8.78794 3.14954,-2.92906 3.21307,-2.89809 4.8192,-4.34673 1.60614,-1.44864 3.33905,-2.52011 5.00819,-3.77976 1.66912,-1.25966 3.71703,-2.07914 5.57514,-3.11831 1.85812,-1.03917 4.284,-2.01613 6.4256,-3.0238 2.1416,-1.00768 4.221,-1.63817 6.3311,-2.45685 2.1101,-0.81868 5.22894,-1.63816 7.84301,-2.45685 2.61407,-0.81868 5.29193,-1.0082 7.9375,-1.5119 2.64556,-0.5037 5.30768,-0.87434 7.89025,-1.15756 1.29129,-0.1416 2.33081,-0.14232 3.30729,-0.1063 l 2.65369,0.0979 2.5041,0.0236 c 0.88666,0.008 1.15783,0.63805 1.59853,0.95329 0.44071,0.31525 1.00821,0.37771 1.51191,0.56697 0.5037,0.18925 1.51216,-0.25225 2.26786,-0.37798 0.75568,-0.12573 1.13419,-0.88221 1.7009,-1.32292 0.56669,-0.4407 0.8192,-1.19718 1.22841,-1.79538 0.4092,-0.5982 0.18925,-2.07914 0.28347,-3.11831 0.0942,-1.03917 -1.00766,-2.26812 -1.51188,-3.40178 -0.50424,-1.13367 -1.63764,-1.57517 -2.45687,-2.36235 -0.8192,-0.78719 -1.63762,-0.31525 -2.45683,-0.47247 -0.81921,-0.15723 -1.44864,0.37771 -2.17336,0.56696 -0.72472,0.18925 -1.25966,0.6297 -1.88988,0.94494 h -3.49628 c -1.1657,2.6e-4 -7.30728,-0.0633 -10.96131,-0.0945 -3.65404,-0.0312 -5.92137,0.12572 -8.88244,0.18899 -2.96108,0.0632 -9.00817,1.19666 -13.51265,1.79538 -4.50448,0.59873 -8.44121,1.63763 -12.66221,2.45685 -4.22099,0.81921 -8.81917,3.08654 -13.22916,4.63021 -4.40999,1.54366 -10.20509,5.03941 -15.30804,7.55952 -5.10294,2.5201 -10.52007,6.74031 -15.7805,10.11086 -5.26044,3.37056 -8.69319,6.55133 -13.04018,9.82738 -4.34699,3.27606 -7.43327,5.54339 -11.1503,8.31548 -3.717032,2.77209 -4.976422,2.96055 -7.465036,4.44122 -2.488606,1.48067 -4.220466,2.1416 -6.331096,3.2128 -2.11063,1.07119 -4.47245,1.57463 -6.70908,2.36235 -2.23662,0.78771 -2.89755,-0.12626 -4.34672,-0.18899 -1.44918,-0.0627 -1.44865,-0.69322 -2.17337,-1.03944 -0.72471,-0.34621 -0.37771,-2.77209 -0.56696,-4.15773 -0.18925,-1.38565 0.25225,-6.99283 0.37797,-10.48884 0.12573,-3.49602 2.7e-4,-6.48886 0,-9.73289 -2.6e-4,-3.24403 -0.31471,-5.03995 -0.47246,-7.55952 -0.15776,-2.51958 -0.44071,-5.03995 -0.66146,-7.55953 -0.22075,-2.51957 -0.69936,-5.84077 -1.26659,-8.64383 -0.56723,-2.80305 -1.31598,-2.72721 -1.75722,-4.20736 -0.44124,-1.48014 -1.82378,-1.04925 -2.48551,-1.48995 -0.66172,-0.44071 -4.09731,-1.09315 -6.39692,-1.72285 -2.299626,-0.62969 -5.039423,-0.56722 -7.559529,-0.85044 -2.520106,-0.28322 -8.472701,-0.22078 -12.567708,-0.18898 -4.095006,0.0318 -7.85849,0.39346 -11.764507,0.61421 -3.90602,0.22075 -6.094604,1.02342 -9.118677,1.37017 -3.024074,0.34674 -2.960549,0.75568 -4.724703,1.22842 -1.764152,0.47273 -1.763624,1.13366 -2.551339,1.6064 -0.787714,0.47273 -0.444933,0.3915 -0.185827,0.37077"
       sodipodi:nodetypes="cccssssscccscssccsccscscssccccscscscscccccccccsccsccccsscssccccscccsscccssscccc" />
    <ellipse
       style="opacity:1;fill:#784421;fill-opacity:0.97685188;fill-rule:nonzero;stroke:none;stroke-width:5.7720952;stroke-linecap:round;stroke-linejoin:miter;stroke-miterlimit:4;stroke-dasharray:none;stroke-dashoffset:0;stroke-opacity:0.99074073"
       id="path4498"
       cx="42.131432"
       cy="198.10446"
       rx="25.749628"
       ry="3.9608753" />
    <ellipse
       ry="1.9292532"
       rx="17.952271"
       cy="197.64143"
       cx="42.036942"
       id="ellipse4500"
       style="opacity:1;fill:#000000;fill-opacity:0.97685188;fill-rule:nonzero;stroke:none;stroke-width:3.36361837;stroke-linecap:round;stroke-linejoin:miter;stroke-miterlimit:4;stroke-dasharray:none;stroke-dashoffset:0;stroke-opacity:0.99074073" />
    <path
       style="fill:url(#linearGradient4555);fill-opacity:1;stroke:none;stroke-width:0.13545598;stroke-linecap:square;stroke-linejoin:miter;stroke-miterlimit:4;stroke-dasharray:none;stroke-dashoffset:0;stroke-opacity:1"
       d="m 198.9389,199.8494 c -0.34018,0.0143 -0.68015,0.0301 -1.02016,0.0498 -4.64721,0.26787 -9.24454,1.07257 -13.83608,1.83817 -4.34385,0.7243 -8.70078,1.41605 -12.96514,2.51546 -4.63668,1.19542 -9.13937,2.86673 -13.5456,4.74097 -5.36498,2.28205 -10.60009,4.86942 -15.67427,7.74056 -5.56973,3.15155 -10.9429,6.6437 -16.15788,10.35286 -4.54192,3.23043 -8.96416,6.62552 -13.35195,10.06237 -3.73849,2.92827 -7.45823,5.89124 -11.41693,8.51415 -2.472272,1.63804 -5.033222,3.13996 -7.643746,4.5473 -2.133126,1.14997 -4.299526,2.23741 -6.482306,3.29009 -2.19633,1.05923 -4.45257,2.09667 -6.86963,2.41864 -1.47921,0.19704 -2.99176,0.11864 -4.45099,-0.19366 -0.40873,-0.0875 -0.81512,-0.19377 -1.19847,-0.36034 -0.38335,-0.16656 -0.74413,-0.39557 -1.02651,-0.70373 -0.50088,-0.54663 -0.71974,-1.30369 -0.75982,-2.04401 -0.0401,-0.74032 0.0815,-1.47834 0.17885,-2.21333 0.47065,-3.55404 0.37855,-7.15459 0.38731,-10.73965 0.008,-3.32212 0.10387,-6.64504 0,-9.96553 -0.0808,-2.58415 -0.28228,-5.16304 -0.48361,-7.74058 -0.20171,-2.5822 -0.40323,-5.16451 -0.67729,-7.74005 -0.31559,-2.96588 -0.72751,-5.92288 -1.29688,-8.85066 -0.15079,-0.77534 -0.31377,-1.55184 -0.58627,-2.29323 -0.2725,-0.74137 -0.66012,-1.45107 -1.21328,-2.01491 -0.34026,-0.34681 -0.73436,-0.62929 -1.15562,-0.87147 0.0962,0.20829 0.18351,0.42068 0.26246,0.63549 0.32168,0.87518 0.51409,1.79171 0.69209,2.707 0.67214,3.45622 1.1582,6.94689 1.53076,10.4481 0.32352,3.04039 0.5614,6.08918 0.7995,9.13747 0.23767,3.04277 0.47602,6.08688 0.57146,9.13744 0.1226,3.91985 0.009,7.84283 0,11.76457 -0.0103,4.23215 0.0985,8.48283 -0.45717,12.67836 -0.11492,0.86766 -0.25842,1.73887 -0.21112,2.61281 0.0473,0.87397 0.30505,1.76701 0.89634,2.41229 0.33335,0.36378 0.75968,0.63462 1.21223,0.83126 0.45254,0.19664 0.93239,0.32215 1.41488,0.42541 1.72261,0.36868 3.50799,0.46119 5.25421,0.22859 2.85331,-0.38006 5.51662,-1.60528 8.10937,-2.85569 2.57676,-1.2427 5.134586,-2.52571 7.652736,-3.88325 3.081694,-1.66135 6.104636,-3.43479 9.023156,-5.3685 4.67324,-3.09633 9.06461,-6.59445 13.47788,-10.05125 5.17977,-4.0572 10.39987,-8.06482 15.76157,-11.87834 6.15627,-4.37866 12.49939,-8.5008 19.07443,-12.2212 5.99005,-3.38938 12.17015,-6.44349 18.5035,-9.13744 5.20153,-2.21255 10.51712,-4.18592 15.99068,-5.59709 3.85051,-0.99273 7.76478,-1.703 11.68731,-2.36519 z"
       id="path4514"
       inkscape:connector-curvature="0" />
    <path
       style="fill:none;fill-opacity:1;stroke:none;stroke-width:0.11722093;stroke-linecap:square;stroke-linejoin:miter;stroke-miterlimit:4;stroke-dasharray:none;stroke-dashoffset:0;stroke-opacity:1"
       d="m 17.064524,258.9597 c 0.348287,1.62592 0.68466,3.25739 1.20251,4.83691 0.763992,2.33028 1.91385,4.51563 3.173449,6.61975 0.914575,1.52776 1.891594,3.02155 3.002402,4.41317 1.740532,2.18054 3.798417,4.09442 6.004285,5.80275 1.509876,1.1693 3.097236,2.24871 4.803841,3.10575 1.908569,0.95847 3.947909,1.63036 6.004285,2.2071 2.372312,0.66534 4.778893,1.20923 7.20576,1.63452 3.259952,0.57128 6.5576,0.9284 9.864516,1.06247 5.307287,0.21517 10.636898,-0.14551 15.868798,-1.06247 2.86286,-0.50175 5.695519,-1.16948 8.491987,-1.96163 3.50874,-0.99391 6.965799,-2.18584 10.293427,-3.67782 3.896044,-1.74683 7.597686,-3.897 11.237046,-6.12985 3.10373,-1.90423 6.17133,-3.87373 9.09247,-6.0477 3.98544,-2.96605 7.67742,-6.29708 11.27941,-9.72395 z"
       id="path4532"
       inkscape:connector-curvature="0" />
    <text
       xml:space="preserve"
       style="font-style:normal;font-weight:bold;font-size:4.55501699px;line-height:5.95188856px;font-family:Sans;-inkscape-font-specification:'Sans Bold';letter-spacing:0px;word-spacing:0px;fill:#ff00ff;fill-opacity:1;stroke:none;stroke-width:0.20244519px;stroke-linecap:butt;stroke-linejoin:miter;stroke-opacity:1"
       id="text4616"
       transform="translate(-3.6666667e-8,-1.5875)"><textPath
         xlink:href="#path4532"
         id="textPath4618"
         style="font-style:normal;font-variant:normal;font-weight:bold;font-stretch:normal;font-family:Akkadian;-inkscape-font-specification:'Akkadian Bold';fill:#ffffff"><tspan
   id="tspan4612"
   style="font-style:normal;font-variant:normal;font-weight:bold;font-stretch:normal;font-size:10.79707718px;font-family:Akkadian;-inkscape-font-specification:'Akkadian Bold';fill:#ffffff;stroke-width:0.20244519px"
   y="235.48683"
   x="26.522293">SitePipe</tspan></textPath></text>
  </g>
</svg>
